<?xml version="1.0" encoding="utf-8"?>
<!-- Generator: Adobe Illustrator 15.0.0, SVG Export Plug-In . SVG Version: 6.00 Build 0)  -->
<!DOCTYPE svg PUBLIC "-//W3C//DTD SVG 1.1//EN" "http://www.w3.org/Graphics/SVG/1.1/DTD/svg11.dtd">
<svg version="1.1" id="Layer_1" xmlns="http://www.w3.org/2000/svg" xmlns:xlink="http://www.w3.org/1999/xlink" x="0px" y="0px"
	 width="359.023px" height="200.5px" viewBox="0 0 359.023 200.5" enable-background="new 0 0 359.023 200.5" xml:space="preserve">
<g id="_x35_lwuto_1_">
	<g>
		<path fill-rule="evenodd" clip-rule="evenodd" fill="#FFFFFF" d="M197.399,15.867c3.905,6.388,6.523,14.83,3.773,22.979
			c-1.907,5.651-6.23,8.626-10.289,11.661c-5.472,0.88-9.33,1.004-14.748,0c-3.628-2.987-8.415-5.822-10.289-10.975
			c-3.071-8.443,0.008-17.192,3.772-23.665C175.595,8.207,191.727,8.523,197.399,15.867z"/>
		<path fill-rule="evenodd" clip-rule="evenodd" fill="#FFFFFF" d="M102.399,19.297c15.093-1.775,25.403,12.124,20.234,27.437
			c-2.008,5.952-8.956,12.812-17.147,13.032c-10.877,0.292-20.18-9.469-20.235-20.234c-0.012-2.358,0.266-5.837,1.372-8.574
			C88.359,26.66,95.155,20.15,102.399,19.297z"/>
		<path fill-rule="evenodd" clip-rule="evenodd" fill="#FFFFFF" d="M258.104,19.297c27.572-3.176,27.627,40.613,2.4,40.469
			c-13.027-0.074-22.639-14.655-17.491-28.808C245.103,25.211,251.043,20.11,258.104,19.297z"/>
		<path fill-rule="evenodd" clip-rule="evenodd" fill="#FFFFFF" d="M39.981,60.452c6.632,6.545,6.819,22.294,0.343,29.151
			c-5.103,4.378-13.018,7.064-21.949,4.801C9.456,89.773,4.485,78.321,8.086,67.654c1.561-4.625,5.858-9.826,10.289-11.661
			C25.809,52.916,35.045,56.271,39.981,60.452z"/>
		<path fill-rule="evenodd" clip-rule="evenodd" fill="#FFFFFF" d="M338.013,55.308c27.572-3.176,27.627,40.613,2.4,40.469
			c-13.026-0.074-22.639-14.655-17.491-28.809C325.013,61.222,330.953,56.121,338.013,55.308z"/>
		<path fill-rule="evenodd" clip-rule="evenodd" fill="#FFFFFF" d="M182.995,61.138c10.409,22.857,18.971,47.563,28.809,70.993
			c14.427-21.584,29.131-42.89,43.213-64.819c5.207,23.601,8.91,48.707,13.718,72.707c18.425-11.185,37.813-24.376,56.245-36.697
			c-13.659,29.897-30.504,59.58-44.928,89.856c-6.674-1.958-13.203-5.997-20.92-7.889c-3.77-0.924-7.965-1.375-12.004-2.4
			c-10.863-2.76-23.816-3.394-37.382-5.145c-17.71-2.285-35.504-2.369-53.501,0c-13.574,1.787-26.215,2.227-37.726,5.145
			c-11.661,2.955-22.758,5.728-32.238,10.289c-14.69-30.353-30.579-59.503-45.271-89.856c18.888,12.322,37.59,24.83,56.588,37.04
			c4.495-24.313,8.884-48.733,13.375-73.05c14.27,21.511,28.611,42.954,42.527,64.819
			C163.902,109.036,173.237,84.875,182.995,61.138z"/>
	</g>
</g>
</svg>
